<svg width="24" height="24" viewBox="0 0 24 24" fill="none" xmlns="http://www.w3.org/2000/svg">
<g clip-path="url(#clip0_50_10)">
<path d="M7.26911 -1.96345e-05C7.02976 0.0317302 6.81238 0.155996 6.66358 0.346134L3.51865 4.29783L1.44173 2.91321C1.33943 2.84451 1.22457 2.79668 1.10374 2.77248C0.982917 2.74827 0.8585 2.74816 0.73763 2.77216C0.616761 2.79615 0.50182 2.84378 0.399401 2.9123C0.296982 2.98083 0.209102 3.0689 0.140804 3.17147C0.0725053 3.27404 0.0251325 3.38908 0.00140377 3.51001C-0.022325 3.63093 -0.0219428 3.75534 0.0025286 3.87612C0.027 3.99689 0.0750787 4.11164 0.144006 4.21379C0.212934 4.31594 0.301353 4.40347 0.404191 4.47136L3.17342 6.31752C3.36751 6.44675 3.60331 6.49773 3.83345 6.46023C4.06359 6.42273 4.27101 6.29952 4.41404 6.11536L8.10634 1.49998C8.22385 1.35664 8.29548 1.18125 8.31192 0.996636C8.32835 0.812021 8.28883 0.626734 8.1985 0.464892C8.10817 0.30305 7.97121 0.172149 7.80544 0.0892293C7.63968 0.00630934 7.4528 -0.0247897 7.26911 -1.96345e-05ZM11.0768 2.76921V4.61536H23.9999V2.76921H11.0768ZM7.26911 8.30767C7.02976 8.33942 6.81238 8.46369 6.66358 8.65383L3.51865 12.6055L1.44173 11.2209C1.23511 11.0832 0.982239 11.0332 0.738759 11.0819C0.49528 11.1307 0.28113 11.2741 0.143422 11.4807C0.005713 11.6874 -0.0442743 11.9402 0.00445631 12.1837C0.0531869 12.4272 0.196644 12.6413 0.403268 12.7791L3.1725 14.6252C3.36659 14.7544 3.60239 14.8054 3.83253 14.7679C4.06267 14.7304 4.27009 14.6072 4.41311 14.4231L8.10542 9.80767C8.22283 9.66439 8.29442 9.4891 8.31087 9.30459C8.32732 9.12009 8.28788 8.93489 8.19767 8.7731C8.10747 8.61131 7.97067 8.4804 7.80507 8.39739C7.63947 8.31439 7.45272 8.28312 7.26911 8.30767ZM11.0768 11.0769V12.9231H23.9999V11.0769H11.0768ZM7.26911 16.6154C7.02976 16.6471 6.81238 16.7714 6.66358 16.9615L3.51865 20.9132L1.44173 19.5286C1.33942 19.4604 1.22468 19.413 1.10407 19.3892C0.98345 19.3654 0.859318 19.3655 0.738759 19.3896C0.49528 19.4384 0.28113 19.5818 0.143422 19.7884C0.005713 19.9951 -0.0442743 20.2479 0.00445631 20.4914C0.0531869 20.7349 0.196644 20.949 0.403268 21.0868L3.1725 22.9329C3.36659 23.0621 3.60239 23.1131 3.83253 23.0756C4.06267 23.0381 4.27009 22.9149 4.41311 22.7308L8.10542 18.1154C8.22283 17.9721 8.29442 17.7968 8.31087 17.6123C8.32732 17.4278 8.28788 17.2426 8.19767 17.0808C8.10747 16.919 7.97067 16.7881 7.80507 16.7051C7.63947 16.6221 7.45272 16.5908 7.26911 16.6154ZM11.0768 19.3846V21.2308H23.9999V19.3846H11.0768Z" fill="white"/>
</g>
<defs>
<clipPath id="clip0_50_10">
<rect width="24" height="24" fill="white"/>
</clipPath>
</defs>
</svg>
